Coordinates
version=1
nRows=17
nColumns=24
inDegrees=yes

Units are S.I. units (second, meters, Newtons, ...)
Angles are in degrees.

endheader
time	pelvis_tilt	pelvis_list	pelvis_rotation	pelvis_tx	pelvis_ty	pelvis_tz	hip_flexion_r	hip_adduction_r	hip_rotation_r	knee_angle_r	ankle_angle_r	subtalar_angle_r	mtp_angle_r	hip_flexion_l	hip_adduction_l	hip_rotation_l	knee_angle_l	ankle_angle_l	subtalar_angle_l	mtp_angle_l	lumbar_extension	lumbar_bending	lumbar_rotation
      0.82883333	      0.78152165	      0.09038640	      0.44991648	     -0.41313306	      1.01946989	      0.26542947	      8.47081208	      4.26371384	      1.12874665	    -15.64574531	      4.27588488	    -16.40887587	      6.07360333	     13.76814862	     -1.62527722	     -4.14885060	    -66.94929704	      2.13965635	    -15.29447780	      2.91831934	     -1.16679427	     -0.04841456	      1.28708056
      0.83300000	      0.79005560	      0.22297357	      0.26569415	     -0.40803692	      1.02029176	      0.26573141	      7.98177539	      4.12357122	      1.20202989	    -15.31267150	      4.38179888	    -16.19085834	      6.11038378	     14.25935542	     -1.48053825	     -4.32574648	    -66.53489159	      2.44741696	    -14.82652202	      2.92656392	     -1.19414919	     -0.15799684	      1.57470593
      0.83716667	      0.77880888	      0.32299327	      0.08959247	     -0.40294422	      1.02101389	      0.26604420	      7.51318896	      4.01800035	      1.26612741	    -14.97564826	      4.48973265	    -15.97071250	      6.15286121	     14.76967241	     -1.38173010	     -4.49504111	    -66.09700266	      2.76443867	    -14.32750355	      2.94657814	     -1.19912428	     -0.25010135	      1.88820524
      0.84133333	      0.77918366	      0.44524422	     -0.09871690	     -0.39786611	      1.02174442	      0.26634194	      7.03404777	      3.88384662	      1.33211795	    -14.63714206	      4.58690680	    -15.74798964	      6.19519351	     15.24772182	     -1.25672454	     -4.67394774	    -65.59348964	      3.05676859	    -13.82653702	      2.97555713	     -1.21451113	     -0.35549730	      2.18134906
      0.84550000	      0.78231788	      0.54328548	     -0.27766028	     -0.39281658	      1.02241304	      0.26664617	      6.54891381	      3.77513035	      1.39718094	    -14.28794488	      4.70135545	    -15.52325925	      6.24872954	     15.72145106	     -1.16740513	     -4.84764832	    -65.06645991	      3.35487530	    -13.31603452	      3.01988707	     -1.24744078	     -0.44770863	      2.51580745
      0.84966667	      0.77292571	      0.65167466	     -0.46490038	     -0.38776901	      1.02302981	      0.26693704	      6.08688217	      3.65191036	      1.46059443	    -13.95487863	      4.77991284	    -15.31719712	      6.29040255	     16.19000277	     -1.06768762	     -5.02896997	    -64.48248866	      3.62444209	    -12.81082842	      3.06257705	     -1.25031192	     -0.53755749	      2.77444525
      0.85383333	      0.78762966	      0.74442202	     -0.63993743	     -0.38274279	      1.02363271	      0.26723288	      5.58884502	      3.54534146	      1.52800092	    -13.60088236	      4.90734591	    -15.09790932	      6.34897536	     16.62652995	     -0.98914494	     -5.19723337	    -63.86967388	      3.90287613	    -12.31840172	      3.12620715	     -1.29988152	     -0.62301893	      3.11961872
      0.85800000	      0.76875777	      0.84760010	     -0.82251604	     -0.37771940	      1.02415372	      0.26751844	      5.13914094	      3.42432571	      1.58972984	    -13.26525532	      4.96167830	    -14.90554354	      6.38510621	     17.08201830	     -0.90044484	     -5.37324881	    -63.20254874	      4.13366788	    -11.84999479	      3.17209479	     -1.29537287	     -0.71877405	      3.33882138
      0.86216667	      0.77692206	      0.90850162	     -0.98744500	     -0.37272040	      1.02464760	      0.26779640	      4.64725085	      3.34992808	      1.65851247	    -12.90503234	      5.09672471	    -14.71578881	      6.44436711	     17.50757477	     -0.86391135	     -5.53144100	    -62.52526433	      4.40302272	    -11.36651046	      3.24892965	     -1.33523288	     -0.76286995	      3.69848918
      0.86633333	      0.77977983	      0.99318941	     -1.15965424	     -0.36772671	      1.02510828	      0.26807491	      4.17005864	      3.24670831	      1.72325359	    -12.55838957	      5.18942034	    -14.53527457	      6.49834817	     17.91695242	     -0.80172982	     -5.69906077	    -61.78712474	      4.61910150	    -10.93330778	      3.32368019	     -1.36237291	     -0.83859959	      3.98076620
      0.87050000	      0.77960810	      1.06408984	     -1.32354033	     -0.36274777	      1.02551602	      0.26834178	      3.69488372	      3.15756020	      1.79169832	    -12.20774511	      5.27634997	    -14.36771492	      6.55400207	     18.32057705	     -0.75469117	     -5.85434618	    -61.01895595	      4.82601502	    -10.51996179	      3.40441405	     -1.39042610	     -0.89652082	      4.26540373
      0.87466667	      0.76206571	      1.12591440	     -1.48293549	     -0.35778666	      1.02583786	      0.26860422	      3.24353749	      3.07788961	      1.85853521	    -11.86558733	      5.36519847	    -14.21377092	      6.60731025	     18.73376433	     -0.72086986	     -6.00686596	    -60.22244673	      5.01535977	    -10.13490559	      3.48612818	     -1.39809124	     -0.94471046	      4.53901660
      0.87883333	      0.75009744	      1.20906417	     -1.63834484	     -0.35282148	      1.02616805	      0.26884192	      2.78787012	      2.97088847	      1.91648952	    -11.52424427	      5.41211989	    -14.06511033	      6.63902530	     19.11669010	     -0.65434854	     -6.14754115	    -59.36049935	      5.14728391	     -9.82222057	      3.53643397	     -1.40744931	     -1.01757087	      4.72390154
      0.88300000	      0.74859191	      1.24390110	     -1.77840818	     -0.34788277	      1.02640967	      0.26909098	      2.31291426	      2.91977448	      1.98320746	    -11.16997631	      5.53634487	    -13.93044420	      6.69156773	     19.49162907	     -0.65293723	     -6.28243520	    -58.50812100	      5.32080476	     -9.48431285	      3.62094350	     -1.44215342	     -1.03858528	      5.05201048
      0.88716667	      0.73549406	      1.29212880	     -1.91708405	     -0.34294578	      1.02661823	      0.26931543	      1.85503880	      2.85081126	      2.04836075	    -10.82278219	      5.61475188	    -13.80771070	      6.74384676	     19.85812823	     -0.62834422	     -6.40564825	    -57.60195919	      5.43846055	     -9.21241171	      3.70816863	     -1.45946503	     -1.07328680	      5.30998801
      0.89133333	      0.67453809	      1.32930404	     -2.02646912	     -0.33801741	      1.02671147	      0.26949633	      1.44406952	      2.79423187	      2.09701512	    -10.46505600	      5.67719705	    -13.68834029	      6.76199266	     20.27343867	     -0.60615927	     -6.49314222	    -56.67514680	      5.51436552	     -9.02615384	      3.73759480	     -1.42529691	     -1.10842636	      5.41572995
      0.89550000	      0.68287858	      1.38001312	     -2.16344621	     -0.33309409	      1.02687446	      0.26971451	      0.97731826	      2.71882949	      2.14549786	    -10.14545710	      5.74380393	    -13.58290453	      6.79354415	     20.57890727	     -0.58242061	     -6.62043502	    -55.68486157	      5.59707583	     -8.76892416	      3.79329019	     -1.45962322	     -1.14081789	      5.68283069
